# Blender v2.80 (sub 75) OBJ File: 'Keycard.blend'
# www.blender.org
mtllib Keycard.mtl
o Cube_Cube.001
v -0.011668 -0.000352 0.009848
v -0.014678 -0.000352 0.007828
v -0.012820 -0.000352 0.009695
v -0.013797 -0.000352 0.009257
v -0.014449 -0.000352 0.008601
v -0.014678 0.000352 0.007828
v -0.011668 0.000352 0.009848
v -0.014449 0.000352 0.008601
v -0.013797 0.000352 0.009257
v -0.012820 0.000352 0.009695
v -0.014678 -0.000352 -0.007828
v -0.011668 -0.000352 -0.009848
v -0.014449 -0.000352 -0.008601
v -0.013797 -0.000352 -0.009257
v -0.012820 -0.000352 -0.009695
v -0.011668 0.000352 -0.009848
v -0.014678 0.000352 -0.007828
v -0.012820 0.000352 -0.009695
v -0.013797 0.000352 -0.009257
v -0.014449 0.000352 -0.008601
v 0.014678 -0.000352 0.007828
v 0.011668 -0.000352 0.009848
v 0.014449 -0.000352 0.008601
v 0.013797 -0.000352 0.009257
v 0.012820 -0.000352 0.009695
v 0.011668 0.000352 0.009848
v 0.014678 0.000352 0.007828
v 0.012820 0.000352 0.009695
v 0.013797 0.000352 0.009257
v 0.014449 0.000352 0.008601
v 0.011668 -0.000352 -0.009848
v 0.014678 -0.000352 -0.007828
v 0.012820 -0.000352 -0.009695
v 0.013797 -0.000352 -0.009257
v 0.014449 -0.000352 -0.008601
v 0.014678 0.000352 -0.007828
v 0.011668 0.000352 -0.009848
v 0.014449 0.000352 -0.008601
v 0.013797 0.000352 -0.009257
v 0.012820 0.000352 -0.009695
vt 0.889662 0.751295
vt 0.904952 0.751295
vt 0.904952 0.999936
vt 0.889662 0.999936
vt 0.889662 0.542233
vt 0.904952 0.542233
vt 0.904952 0.709059
vt 0.889662 0.709059
vt 0.043269 0.067541
vt 0.048812 0.048844
vt 0.064597 0.032993
vt 0.088221 0.022402
vt 0.116088 0.018683
vt 0.680499 0.018683
vt 0.708365 0.022402
vt 0.731990 0.032993
vt 0.747775 0.048844
vt 0.753318 0.067541
vt 0.753318 0.446233
vt 0.747775 0.464931
vt 0.731990 0.480781
vt 0.708365 0.491372
vt 0.680498 0.495092
vt 0.116088 0.495092
vt 0.088221 0.491372
vt 0.064597 0.480781
vt 0.048812 0.464930
vt 0.043269 0.446233
vt 0.889663 0.042299
vt 0.904952 0.042299
vt 0.904952 0.209123
vt 0.889662 0.209123
vt 0.889662 0.251359
vt 0.904952 0.251359
vt 0.904952 0.499997
vt 0.889662 0.499996
vt 0.889663 0.000064
vt 0.904952 0.000064
vt 0.904952 0.012449
vt 0.889663 0.012449
vt 0.904952 0.023854
vt 0.889663 0.023854
vt 0.904952 0.033708
vt 0.889663 0.033708
vt 0.889662 0.238974
vt 0.904952 0.238974
vt 0.889662 0.227569
vt 0.904952 0.227569
vt 0.889662 0.217714
vt 0.904952 0.217714
vt 0.889662 0.533642
vt 0.904952 0.533642
vt 0.889662 0.523787
vt 0.904952 0.523787
vt 0.889662 0.512382
vt 0.904952 0.512382
vt 0.889662 0.738910
vt 0.904952 0.738910
vt 0.889662 0.727505
vt 0.904952 0.727505
vt 0.889662 0.717650
vt 0.904952 0.717650
vt 0.043269 0.544239
vt 0.048812 0.525541
vt 0.064597 0.509691
vt 0.088221 0.499099
vt 0.116088 0.495380
vt 0.680498 0.495380
vt 0.708365 0.499099
vt 0.731990 0.509691
vt 0.747775 0.525541
vt 0.753318 0.544239
vt 0.753318 0.922931
vt 0.747775 0.941628
vt 0.731990 0.957479
vt 0.708365 0.968070
vt 0.680498 0.971789
vt 0.116088 0.971789
vt 0.088221 0.968070
vt 0.064597 0.957479
vt 0.048812 0.941628
vt 0.043269 0.922931
vn 0.0000 0.0000 1.0000
vn 1.0000 0.0000 0.0000
vn 0.0000 1.0000 -0.0000
vn -1.0000 0.0000 0.0000
vn 0.0000 0.0000 -1.0000
vn -0.1323 0.0000 0.9912
vn -0.4091 0.0000 0.9125
vn -0.7086 0.0000 0.7056
vn -0.9588 0.0000 0.2842
vn -0.1323 0.0000 -0.9912
vn -0.4091 0.0000 -0.9125
vn -0.7086 0.0000 -0.7056
vn -0.9588 0.0000 -0.2842
vn 0.9588 0.0000 -0.2842
vn 0.7086 0.0000 -0.7056
vn 0.4091 0.0000 -0.9125
vn 0.1323 0.0000 -0.9912
vn 0.1323 0.0000 0.9912
vn 0.4091 0.0000 0.9125
vn 0.7086 0.0000 0.7056
vn 0.9588 0.0000 0.2842
vn 0.0000 -1.0000 -0.0000
usemtl Material.001
s off
f 22/1/1 26/2/1 7/3/1 1/4/1
f 32/5/2 36/6/2 27/7/2 21/8/2
f 36/9/3 38/10/3 39/11/3 40/12/3 37/13/3 16/14/3 18/15/3 19/16/3 20/17/3 17/18/3 6/19/3 8/20/3 9/21/3 10/22/3 7/23/3 26/24/3 28/25/3 29/26/3 30/27/3 27/28/3
f 2/29/4 6/30/4 17/31/4 11/32/4
f 12/33/5 16/34/5 37/35/5 31/36/5
f 1/37/6 7/38/6 10/39/6 3/40/6
f 3/40/7 10/39/7 9/41/7 4/42/7
f 4/42/8 9/41/8 8/43/8 5/44/8
f 5/44/9 8/43/9 6/30/9 2/29/9
f 16/34/10 12/33/10 15/45/10 18/46/10
f 18/46/11 15/45/11 14/47/11 19/48/11
f 19/48/12 14/47/12 13/49/12 20/50/12
f 20/50/13 13/49/13 11/32/13 17/31/13
f 36/6/14 32/5/14 35/51/14 38/52/14
f 38/52/15 35/51/15 34/53/15 39/54/15
f 39/54/16 34/53/16 33/55/16 40/56/16
f 40/56/17 33/55/17 31/36/17 37/35/17
f 26/2/18 22/1/18 25/57/18 28/58/18
f 28/58/19 25/57/19 24/59/19 29/60/19
f 29/60/20 24/59/20 23/61/20 30/62/20
f 30/62/21 23/61/21 21/8/21 27/7/21
f 11/63/22 13/64/22 14/65/22 15/66/22 12/67/22 31/68/22 33/69/22 34/70/22 35/71/22 32/72/22 21/73/22 23/74/22 24/75/22 25/76/22 22/77/22 1/78/22 3/79/22 4/80/22 5/81/22 2/82/22
